<svg width="165" height="165" viewBox="0 0 165 165" fill="none" xmlns="http://www.w3.org/2000/svg">
<path d="M0 20C0 8.95431 8.95431 0 20 0H145C156.046 0 165 8.95431 165 20V145C165 156.046 156.046 165 145 165H20C8.95431 165 0 156.046 0 145V20Z" fill="#FFF7FD"/>
<path d="M82.5 50.1667V66.8334M90.8333 58.5001H74.1666" stroke="#141B34" stroke-width="1.5" stroke-linejoin="round"/>
<path d="M99.1667 58.4999C99.1667 49.2952 91.7047 41.8333 82.5 41.8333C73.2953 41.8333 65.8334 49.2952 65.8334 58.4999C65.8334 67.7046 73.2953 75.1666 82.5 75.1666C91.7047 75.1666 99.1667 67.7046 99.1667 58.4999Z" stroke="#141B34" stroke-width="1.5" stroke-linejoin="round"/>
<path d="M54.8901 96.932H56.7621V101.188C56.1754 101.625 55.4821 101.983 54.6821 102.26C53.8821 102.527 53.0981 102.66 52.3301 102.66C51.2314 102.66 50.2287 102.404 49.3221 101.892C48.4261 101.38 47.7167 100.687 47.1941 99.812C46.6714 98.9267 46.4101 97.9507 46.4101 96.884C46.4101 95.8173 46.6767 94.852 47.2101 93.988C47.7434 93.1133 48.4687 92.4253 49.3861 91.924C50.3141 91.412 51.3381 91.156 52.4581 91.156C53.2581 91.156 54.0474 91.3 54.8261 91.588C55.6047 91.876 56.2767 92.2707 56.8421 92.772L55.6261 94.356C55.1994 93.9507 54.7034 93.636 54.1381 93.412C53.5834 93.188 53.0234 93.076 52.4581 93.076C51.7541 93.076 51.1034 93.2467 50.5061 93.588C49.9194 93.9187 49.4554 94.3773 49.1141 94.964C48.7727 95.5507 48.6021 96.1907 48.6021 96.884C48.6021 97.588 48.7727 98.2333 49.1141 98.82C49.4661 99.4067 49.9354 99.8707 50.5221 100.212C51.1087 100.553 51.7594 100.724 52.4741 100.724C52.8581 100.724 53.2581 100.665 53.6741 100.548C54.1007 100.42 54.5061 100.244 54.8901 100.02V96.932ZM62.7312 93.876C64.0965 93.876 65.1205 94.2653 65.8032 95.044C66.4965 95.8227 66.8432 96.916 66.8432 98.324C66.8432 98.6013 66.8379 98.8093 66.8272 98.948H60.5072C60.6459 99.556 60.9285 100.036 61.3552 100.388C61.7925 100.729 62.3259 100.9 62.9552 100.9C63.3925 100.9 63.8085 100.82 64.2032 100.66C64.6085 100.489 64.9605 100.249 65.2592 99.94L66.3792 101.108C65.9525 101.577 65.4299 101.94 64.8112 102.196C64.2032 102.452 63.5259 102.58 62.7792 102.58C61.9045 102.58 61.1312 102.399 60.4592 102.036C59.7979 101.673 59.2859 101.167 58.9232 100.516C58.5605 99.8547 58.3792 99.0973 58.3792 98.244C58.3792 97.3907 58.5605 96.6333 58.9232 95.972C59.2965 95.3107 59.8139 94.7987 60.4752 94.436C61.1365 94.0627 61.8885 93.876 62.7312 93.876ZM64.9392 97.556C64.9179 96.9267 64.7099 96.4253 64.3152 96.052C63.9205 95.6787 63.3979 95.492 62.7472 95.492C62.1392 95.492 61.6272 95.6787 61.2112 96.052C60.8059 96.4147 60.5552 96.916 60.4592 97.556H64.9392ZM73.7839 93.86C74.7653 93.86 75.5386 94.1587 76.1039 94.756C76.6693 95.3427 76.9519 96.1427 76.9519 97.156V102.5H74.8559V97.764C74.8559 97.1667 74.6853 96.6973 74.3439 96.356C74.0026 96.004 73.5386 95.828 72.9519 95.828C72.2586 95.8387 71.7093 96.0733 71.3039 96.532C70.9093 96.9907 70.7119 97.5773 70.7119 98.292V102.5H68.6319V93.94H70.7119V95.54C71.2986 94.4413 72.3226 93.8813 73.7839 93.86ZM82.8562 93.876C84.2215 93.876 85.2455 94.2653 85.9282 95.044C86.6215 95.8227 86.9682 96.916 86.9682 98.324C86.9682 98.6013 86.9629 98.8093 86.9522 98.948H80.6322C80.7709 99.556 81.0535 100.036 81.4802 100.388C81.9175 100.729 82.4509 100.9 83.0802 100.9C83.5175 100.9 83.9335 100.82 84.3282 100.66C84.7335 100.489 85.0855 100.249 85.3842 99.94L86.5042 101.108C86.0775 101.577 85.5549 101.94 84.9362 102.196C84.3282 102.452 83.6509 102.58 82.9042 102.58C82.0295 102.58 81.2562 102.399 80.5842 102.036C79.9229 101.673 79.4109 101.167 79.0482 100.516C78.6855 99.8547 78.5042 99.0973 78.5042 98.244C78.5042 97.3907 78.6855 96.6333 79.0482 95.972C79.4215 95.3107 79.9389 94.7987 80.6002 94.436C81.2615 94.0627 82.0135 93.876 82.8562 93.876ZM85.0642 97.556C85.0429 96.9267 84.8349 96.4253 84.4402 96.052C84.0455 95.6787 83.5229 95.492 82.8722 95.492C82.2642 95.492 81.7522 95.6787 81.3362 96.052C80.9309 96.4147 80.6802 96.916 80.5842 97.556H85.0642ZM90.8369 95.588C91.1249 95.0333 91.5143 94.612 92.0049 94.324C92.5063 94.0253 93.0876 93.8707 93.7489 93.86V95.876C92.8636 95.8227 92.1543 96.0307 91.6209 96.5C91.0983 96.9587 90.8369 97.5827 90.8369 98.372V102.5H88.7569V93.94H90.8369V95.588ZM99.9692 102.5V101.46C99.6705 101.833 99.2865 102.116 98.8172 102.308C98.3479 102.5 97.8092 102.596 97.2012 102.596C96.6039 102.596 96.0759 102.484 95.6172 102.26C95.1692 102.025 94.8225 101.705 94.5772 101.3C94.3319 100.895 94.2092 100.441 94.2092 99.94C94.2092 99.14 94.4919 98.516 95.0572 98.068C95.6225 97.6093 96.4225 97.3747 97.4572 97.364H99.9532V97.14C99.9532 96.6387 99.7879 96.2493 99.4572 95.972C99.1265 95.6947 98.6465 95.556 98.0172 95.556C97.2065 95.556 96.3585 95.8227 95.4732 96.356L94.7212 94.916C95.3932 94.5427 96.0012 94.276 96.5452 94.116C97.0999 93.9453 97.7452 93.86 98.4812 93.86C99.5905 93.86 100.449 94.1267 101.057 94.66C101.676 95.1933 101.991 95.94 102.001 96.9L102.017 102.5H99.9692ZM97.6972 100.996C98.2945 100.996 98.8065 100.857 99.2332 100.58C99.6599 100.292 99.8999 99.94 99.9532 99.524V98.756H97.7932C97.2385 98.756 96.8279 98.8413 96.5612 99.012C96.3052 99.172 96.1772 99.4387 96.1772 99.812C96.1772 100.175 96.3105 100.463 96.5772 100.676C96.8545 100.889 97.2279 100.996 97.6972 100.996ZM109.359 101.972C108.676 102.388 107.961 102.596 107.215 102.596C106.479 102.596 105.876 102.383 105.407 101.956C104.937 101.519 104.703 100.879 104.703 100.036V95.812H103.503L103.487 94.292H104.703V91.94H106.767V94.292H109.215V95.812H106.767V99.668C106.767 100.063 106.841 100.345 106.991 100.516C107.14 100.676 107.364 100.756 107.663 100.756C107.983 100.756 108.388 100.639 108.879 100.404L109.359 101.972ZM114.481 93.876C115.847 93.876 116.871 94.2653 117.553 95.044C118.247 95.8227 118.593 96.916 118.593 98.324C118.593 98.6013 118.588 98.8093 118.577 98.948H112.257C112.396 99.556 112.679 100.036 113.105 100.388C113.543 100.729 114.076 100.9 114.705 100.9C115.143 100.9 115.559 100.82 115.953 100.66C116.359 100.489 116.711 100.249 117.009 99.94L118.129 101.108C117.703 101.577 117.18 101.94 116.561 102.196C115.953 102.452 115.276 102.58 114.529 102.58C113.655 102.58 112.881 102.399 112.209 102.036C111.548 101.673 111.036 101.167 110.673 100.516C110.311 99.8547 110.129 99.0973 110.129 98.244C110.129 97.3907 110.311 96.6333 110.673 95.972C111.047 95.3107 111.564 94.7987 112.225 94.436C112.887 94.0627 113.639 93.876 114.481 93.876ZM116.689 97.556C116.668 96.9267 116.46 96.4253 116.065 96.052C115.671 95.6787 115.148 95.492 114.497 95.492C113.889 95.492 113.377 95.6787 112.961 96.052C112.556 96.4147 112.305 96.916 112.209 97.556H116.689ZM43.309 111.3H45.389V122.5H43.357L37.597 114.788V122.5H35.501V111.3H37.533L43.309 119.028V111.3ZM51.6296 113.876C52.995 113.876 54.019 114.265 54.7016 115.044C55.395 115.823 55.7416 116.916 55.7416 118.324C55.7416 118.601 55.7363 118.809 55.7256 118.948H49.4056C49.5443 119.556 49.827 120.036 50.2536 120.388C50.691 120.729 51.2243 120.9 51.8536 120.9C52.291 120.9 52.707 120.82 53.1016 120.66C53.507 120.489 53.859 120.249 54.1576 119.94L55.2776 121.108C54.851 121.577 54.3283 121.94 53.7096 122.196C53.1016 122.452 52.4243 122.58 51.6776 122.58C50.803 122.58 50.0296 122.399 49.3576 122.036C48.6963 121.673 48.1843 121.167 47.8216 120.516C47.459 119.855 47.2776 119.097 47.2776 118.244C47.2776 117.391 47.459 116.633 47.8216 115.972C48.195 115.311 48.7123 114.799 49.3736 114.436C50.035 114.063 50.787 113.876 51.6296 113.876ZM53.8376 117.556C53.8163 116.927 53.6083 116.425 53.2136 116.052C52.819 115.679 52.2963 115.492 51.6456 115.492C51.0376 115.492 50.5256 115.679 50.1096 116.052C49.7043 116.415 49.4536 116.916 49.3576 117.556H53.8376ZM55.9215 113.956L58.0655 113.94L60.1615 120.404L62.1935 113.94H64.2895L66.3535 120.404L68.4015 113.94H70.4975L67.3935 122.5H65.2655L63.2175 116.468L61.1855 122.5H59.0575L55.9215 113.956ZM75.7198 111.3H77.8638V122.5H75.7198V111.3ZM85.6824 113.86C86.6637 113.86 87.437 114.159 88.0024 114.756C88.5677 115.343 88.8504 116.143 88.8504 117.156V122.5H86.7544V117.764C86.7544 117.167 86.5837 116.697 86.2424 116.356C85.901 116.004 85.437 115.828 84.8504 115.828C84.157 115.839 83.6077 116.073 83.2024 116.532C82.8077 116.991 82.6104 117.577 82.6104 118.292V122.5H80.5304V113.94H82.6104V115.54C83.197 114.441 84.221 113.881 85.6824 113.86ZM89.6559 113.956L91.8319 113.94L94.0719 120.452L96.2639 113.94H98.3599L95.0959 122.5H92.9519L89.6559 113.956ZM103.009 113.876C103.894 113.876 104.673 114.057 105.345 114.42C106.027 114.783 106.555 115.295 106.929 115.956C107.313 116.607 107.505 117.359 107.505 118.212C107.505 119.076 107.313 119.839 106.929 120.5C106.555 121.161 106.027 121.673 105.345 122.036C104.673 122.399 103.894 122.58 103.009 122.58C102.113 122.58 101.323 122.399 100.641 122.036C99.9581 121.673 99.4248 121.161 99.0408 120.5C98.6674 119.839 98.4808 119.076 98.4808 118.212C98.4808 117.359 98.6674 116.607 99.0408 115.956C99.4248 115.295 99.9581 114.783 100.641 114.42C101.323 114.057 102.113 113.876 103.009 113.876ZM103.009 115.652C102.283 115.652 101.697 115.892 101.249 116.372C100.801 116.852 100.577 117.476 100.577 118.244C100.577 119.012 100.801 119.636 101.249 120.116C101.697 120.596 102.283 120.836 103.009 120.836C103.713 120.836 104.289 120.596 104.737 120.116C105.185 119.636 105.409 119.012 105.409 118.244C105.409 117.476 105.185 116.852 104.737 116.372C104.289 115.892 103.713 115.652 103.009 115.652ZM109.312 113.94H111.392V122.5H109.312V113.94ZM110.336 110.26C110.677 110.26 110.96 110.377 111.184 110.612C111.408 110.847 111.52 111.145 111.52 111.508C111.52 111.86 111.408 112.153 111.184 112.388C110.96 112.623 110.677 112.74 110.336 112.74C109.994 112.74 109.712 112.623 109.488 112.388C109.264 112.153 109.152 111.86 109.152 111.508C109.152 111.145 109.264 110.847 109.488 110.612C109.712 110.377 109.994 110.26 110.336 110.26ZM119.856 116.644C119.28 116.015 118.533 115.7 117.616 115.7C116.923 115.7 116.357 115.935 115.92 116.404C115.493 116.873 115.28 117.481 115.28 118.228C115.28 118.996 115.493 119.615 115.92 120.084C116.357 120.553 116.923 120.788 117.616 120.788C118.64 120.788 119.408 120.452 119.92 119.78L121.216 120.852C120.832 121.407 120.325 121.833 119.696 122.132C119.067 122.431 118.336 122.58 117.504 122.58C116.661 122.58 115.909 122.399 115.248 122.036C114.597 121.673 114.091 121.167 113.728 120.516C113.365 119.855 113.184 119.097 113.184 118.244C113.184 117.38 113.365 116.617 113.728 115.956C114.101 115.295 114.613 114.783 115.264 114.42C115.925 114.057 116.683 113.876 117.536 113.876C118.315 113.876 119.008 114.015 119.616 114.292C120.235 114.559 120.736 114.943 121.12 115.444L119.856 116.644ZM126.27 113.876C127.636 113.876 128.66 114.265 129.342 115.044C130.036 115.823 130.382 116.916 130.382 118.324C130.382 118.601 130.377 118.809 130.366 118.948H124.046C124.185 119.556 124.468 120.036 124.894 120.388C125.332 120.729 125.865 120.9 126.494 120.9C126.932 120.9 127.348 120.82 127.742 120.66C128.148 120.489 128.5 120.249 128.798 119.94L129.918 121.108C129.492 121.577 128.969 121.94 128.35 122.196C127.742 122.452 127.065 122.58 126.318 122.58C125.444 122.58 124.67 122.399 123.998 122.036C123.337 121.673 122.825 121.167 122.462 120.516C122.1 119.855 121.918 119.097 121.918 118.244C121.918 117.391 122.1 116.633 122.462 115.972C122.836 115.311 123.353 114.799 124.014 114.436C124.676 114.063 125.428 113.876 126.27 113.876ZM128.478 117.556C128.457 116.927 128.249 116.425 127.854 116.052C127.46 115.679 126.937 115.492 126.286 115.492C125.678 115.492 125.166 115.679 124.75 116.052C124.345 116.415 124.094 116.916 123.998 117.556H128.478Z" fill="#252525"/>
</svg>
